<?xml version="1.0" standalone="no"?>
<!DOCTYPE svg PUBLIC "-//W3C//DTD SVG 20010904//EN"
 "http://www.w3.org/TR/2001/REC-SVG-20010904/DTD/svg10.dtd">
<svg version="1.0" xmlns="http://www.w3.org/2000/svg"
 width="200.000000pt" height="200.000000pt" viewBox="0 0 200.000000 200.000000"
 preserveAspectRatio="xMidYMid meet">

<g transform="translate(0.000000,200.000000) scale(0.100000,-0.100000)"
fill="#d62246" stroke="none">
<path d="M44 1988 c-12 -5 -27 -21 -33 -34 -16 -36 -16 -1877 1 -1907 6 -12
18 -27 27 -34 22 -17 1878 -19 1914 -2 14 6 30 22 36 36 16 34 16 1872 0 1906
-6 14 -22 30 -36 36 -33 15 -1878 14 -1909 -1z m1021 -784 c35 -16 65 -71 65
-120 0 -25 0 -25 45 14 115 101 224 96 242 -11 8 -54 -12 -119 -78 -249 -72
-144 -77 -186 -19 -178 25 3 88 70 152 160 33 47 62 87 65 89 2 3 10 -2 18
-10 12 -12 10 -21 -17 -64 -88 -143 -188 -235 -255 -235 -46 0 -68 13 -83 50
-24 57 -3 122 87 267 38 61 73 145 73 174 0 4 -7 14 -15 23 -21 21 -61 5 -113
-44 -53 -51 -112 -134 -212 -300 -44 -74 -85 -139 -90 -144 -8 -8 -72 24 -68
34 2 3 42 83 90 177 117 229 139 315 83 329 -48 12 -94 -39 -235 -266 -83
-132 -185 -275 -213 -299 -12 -9 -21 -9 -41 0 -14 7 -26 16 -26 20 0 5 26 48
59 96 159 239 217 383 167 415 -43 29 -103 -18 -191 -151 -33 -50 -62 -90 -65
-91 -3 0 -11 4 -19 9 -11 7 -2 26 41 93 72 110 115 157 161 178 61 27 136 2
153 -52 5 -16 12 -12 60 32 74 67 122 81 179 54z"/>
</g>
</svg>
